<?xml version="1.0" encoding="UTF-8"?>
<svg id="Capa_1" data-name="Capa 1" xmlns="http://www.w3.org/2000/svg" viewBox="0 0 412 235.96">
  <defs>
    <style>
      .cls-1 {
        fill: #004aad;
      }
    </style>
  </defs>
  <path class="cls-1" d="M206.7,1.86c-9.8,3.1-10.7,4-10.7,11.5v6.4l3.3-.7c7.6-1.7,35.7.6,35.7,3,0,.4-1.9.5-4.2.1-2.4-.4-11-.8-19.3-.8-11.4,0-15.7.4-17.9,1.5-4.2,2.1-4.3,3.7-.3,6,4,2.4,4.5,3.3,5.3,10.3.7,5.8.9,5.4-9.3,16.6-3.3,3.6-8.7,7.8-14.4,11.1-14.4,8.6-16.7,11.4-18.8,23.5-.7,3.8-1.7,9.2-2.2,12-3.6,17.4-7,47-7.6,65.2l-.6,17.3h121.3l-.1-15.3-.1-15.2-1.8,5.5c-1.2,3.6-1.9,8.6-1.9,14.2l-.1,8.8h-2.6c-2.5,0-2.6-.2-2-3.8,1.1-6.5,2.8-13.6,4.1-17.7,4.9-14.9,5.3-28.1,1.3-39.5-3.5-10.2-5.3-16.5-8.3-30-4.1-17.8-5-19.4-13.7-23.5-4.3-2-9.5-5.5-12.5-8.4-5.7-5.4-6.4-6.6-3.3-5.8,1.1.3,1.8.2,1.5-.3-.2-.4-2.4-1.2-4.7-1.8-2.4-.6-6.4-2.5-9-4.1-4-2.5-4.8-3.6-4.8-6.1,0-1.6-.4-3-.9-3-1.9,0,.8,7.1,3.6,9.3,5.1,3.9,8.5,7.7,8.1,9-.3.6-1.4,1.6-2.6,2.2-1.2.5-2.2,1.4-2.2,2,0,.5-.7,2.3-1.5,3.8s-1,2.5-.5,2.2c1-.6,3,2.6,3,4.7,0,.7-.5,2-1,2.8-.7,1.2-1.7.6-5.2-3.1-5.2-5.6-6.8-7.5-10.2-12.5-2.9-4.3-3.5-9.4-1.1-9.4.8,0,1.5.3,1.5.8,0,.4,1,1.3,2.3,2.1,1.7,1,1.9,1.1,1,0-2.6-2.7-.8-16,1.9-14.3.7.4.2-.6-1-2.3-2.6-3.7-2.8-7.8-.5-9.2,2.6-1.4,5.3.5,5.3,3.8,0,2.4,1.5,4.1,3.6,4.1.2,0,.4-1.6.4-3.5s.5-4.6,1.2-6q1.2-2.6,9.7-2c4.7.4,9.1,1,9.6,1.3,1.3.8,5.1.4,9.5-1l3.5-1.2-5.5-1-5.5-1.1-.3-6.5c-.3-9.6-.8-11-4.7-12.6-4.7-1.9-16.7-1.6-23.8.6ZM227.4,2.86c2.3.8,2.6,1.5,2.6,5.4,0,4.8-1,5.6-8.2,5.6-5.3,0-6.6-.8-8.8-5.1-3.3-6.4-2.9-6.9,4.9-6.9,3.8,0,8.1.4,9.5,1ZM228,61.16c5.6,5.8,10.8,13.7,9,13.7-.6,0-2.5-.7-4.2-1.6l-3.2-1.7,1.9,2.9c1,1.6,3.1,4.6,4.7,6.7l3,3.7-2.7,5.3c-1.5,2.8-4.1,6.9-5.7,8.9-2,2.5-2.5,3.9-1.7,4.4,1.6,1,4.3-2.7,8.6-11.4l3.6-7.3-2.3-3.1c-1.8-2.4-1.9-3-.7-2.5,2.2.8,2.2-2.7.2-6.3-2.5-4.4-1.9-5.1,2.6-3.1,6.8,3.1,8.7,5.7,11,15.6,1.1,5,4.4,17.1,7.2,27,6.1,21.2,6.7,30,3,41.5-1.2,3.6-2.7,9.3-3.4,12.7-.6,3.5-1.3,6.3-1.6,6.3-.2,0-1.6-1.1-3.1-2.5s-3.8-2.8-5.1-3.2c-2.3-.6-2.3-.8-1.9-9.7.3-7.1,1-10.4,3-14.7,2.5-5.5,7.1-11.2,9.8-12.1,1-.3-.1-1.9-3.2-4.9-5.1-4.9-7.1-10-8.7-22.4l-.8-7-.2,7.5c-.2,11.3-2.3,27.1-4.8,36.2-.3,1.4-1.5,1.8-5.3,1.8h-4.9l-.3-14.4-.3-14.5-3-3.1c-3-3.1-13-10.1-19.6-13.6-7.1-3.9-13.9-8.8-13.9-10.1,0-.7.4-1.3.8-1.3,1.4,0,6.3-9.8,5.3-10.4-.5-.3-3,.3-5.6,1.4-6.6,2.8-7.1,2.6-7.9-2.6-.9-7.2-.8-7.6,3.4-12.4l4-4.5,2.1,2.5c1.1,1.4,3.3,3.8,4.7,5.5,5.3,6,14.8,18.1,19.1,24.5,2.4,3.6,4,5.6,3.6,4.5-.5-1.1-.7-5.7-.6-10.2.2-6.2-.1-8.3-1.2-9-2.4-1.4-3.8-4.8-2.5-6.1.9-.9.7-1.6-.5-3-2.2-2.4-2.1-3.9.3-5.4,1.1-.7,2-1.8,2-2.5,0-2,.5-1.7,6,4ZM185,74.16c.7,7.2,1.5,8,6.5,6.3,2.2-.8,4.2-1.3,4.4-1.1.1.2-.9,2-2.4,4-2.7,3.4-2.7,3.6-1,5.5,1,1.1,6.3,4.5,11.9,7.6,13.3,7.4,21.2,12.9,23.2,16,1.6,2.3,1.6,2.6-.1,3.8-2.1,1.5-1.4,4.6,1,4.6,1.2,0,1.5,1.7,1.5,10.5s-.3,10.5-1.4,10.5c-.8,0-1.8-.5-2.1-1-.3-.6-2.4-1-4.5-1s-4.2.4-4.5,1c-1.1,1.7-10.2,1.1-16.7-1.1-6-2-13.8-7.1-13.8-9,0-.6,3.8-.7,9.5-.3,7.8.6,9.5.4,9.5-.7.3-9.4,0-23.2-.5-23.7-.8-.8-18.7-2.2-19.7-1.5-.5.2-.8,2.2-.8,4.4,0,3.8.1,3.9,3.4,3.9,1.8,0,6.1.3,9.5.6l6.1.7v15l-9.2-.7c-5.1-.4-9.6-1-10-1.4s-1.4-5-2.3-10.2c-1.6-9.6-5.3-22.5-6.2-21.7-.2.3,0,2.2.6,4.4,2.2,7.8,1.4,15-4.8,44.8-1.7,8.2-3.7,20.2-4.3,26.5l-1.3,11.5-7.9.3-7.8.3.5-22.3c.3-12.3,1-24.3,1.7-26.8.6-2.4,2.6-6.2,4.4-8.5,1.8-2.2,4.1-5.6,5.1-7.5l1.8-3.5-4.2,4.2c-6.8,7.1-6.9,6.7-3-14.1,2-10.7,5.2-17.4,10.3-21.8,3-2.6,3-2.8,1.2-4.1-1.7-1.3-1.5-1.5,3-4.4,6.9-4.4,10.7-6.3,11.9-5.9.6.1,1.2,2.8,1.5,5.9ZM203.4,107.86c.5.5.6,1.6.2,2.6-.5,1.4-1.5,1.6-5.9,1-2.8-.3-6.4-.6-7.9-.6-2.3,0-2.8-.4-2.8-2.6v-2.6l7.8.7c4.2.4,8.1,1.1,8.6,1.5ZM190.5,141.66c6.6-.3,10.2-.4,8-.1-2.2.2-5,.8-6.1,1.4-1.2.6-4.9.9-8.3.7l-6.1-.3v9.5l3.8.1c2,0,4.5.2,5.5.4,1.6.3,1.8-.1,1.2-2.2-.6-2.5-.5-2.5,2,.6,2.2,2.5,3.4,3.1,6.8,3.1,2.5,0,3.7.4,3.2.9-.6.6-2.8.6-5.5.1-2.5-.5-7.5-.9-11.1-1h-6.7l-.5,3.2c-.4,1.8-1.4,8.1-2.3,14-1.5,9.2-2,10.8-3.6,10.8-1,0-1.8-.7-1.8-1.6,0-2.8,4.7-34.3,6.2-41.4l1.2-5.5,1,3.9,1,3.9,12.1-.5ZM226,148.36v7.5h-8v-6.8c0-3.8.3-7.2.7-7.5.3-.4,2.1-.7,4-.7h3.3v7.5ZM202,148.86v5h-3.5c-3.4,0-7.5-2.7-7.5-5,0-3.1,2.6-5,6.7-5h4.3v5ZM217,148.86v5h-10v-10h10v5ZM242,148.26c0,5-.9,5.6-9.7,5.6h-5.3v-10h15v4.4ZM189.3,146.36c-.3.9-.8,1.4-1,1.1-.3-.3-.2-.9.2-1.5.9-1.6,1.5-1.3.8.4ZM242.8,157.86c.5,5.2,2.5,10.4,5.7,15.4,5.8,8.8,5.7,9.1-6.2,9.4l-10.3.3v-13.5c0-14.9-.2-14.6,7-14.3,2.9.2,3.5.6,3.8,2.7ZM230,169.56v13.3h-24.5c-27.9,0-25.8.8-22.9-9,2.2-7.5,7.1-12.2,14.9-14.5,3.3-.9,6.9-2.1,8-2.5,1.1-.5,7.1-.7,13.2-.7l11.3.2v13.2ZM255.5,174.46c1.6,2.5,1.4,7.4-.3,7.4-.9,0-7.2-11.4-7.2-13s5.4,2.4,7.5,5.6Z"/>
  <path class="cls-1" d="M222.1,69.46c0,1.1.3,1.4.6.6.3-.7.2-1.6-.1-1.9-.3-.4-.6.2-.5,1.3Z"/>
  <path class="cls-1" d="M200,86.86c0,1.3.5,2,1.3,1.7.6-.2,1.2-1,1.2-1.7s-.6-1.5-1.2-1.8c-.8-.2-1.3.5-1.3,1.8Z"/>
  <path class="cls-1" d="M225,26.86c-1,.6-1.1,1-.2,1,.6,0,1.2.7,1.2,1.5,0,1.8,1.4,1.9,4.2.4,2.1-1.1,2.1-1.2.3-2.5-2.2-1.6-3.5-1.7-5.5-.4Z"/>
  <path class="cls-1" d="M206.3,30.96c-.1,1.7.2,2.7.7,2.4,1.2-.7,1.3-4.2.3-4.8-.5-.3-.9.8-1,2.4Z"/>
  <path class="cls-1" d="M234.2,30.36c0,1.6.2,2.2.5,1.2.2-.9.2-2.3,0-3-.3-.6-.5.1-.5,1.8Z"/>
  <path class="cls-1" d="M236.2,37.86c0,1.4.2,1.9.5,1.2.2-.6.2-1.8,0-2.5-.3-.6-.5-.1-.5,1.3Z"/>
  <path class="cls-1" d="M232.5,40.86c.4.6-.7,1-2.4,1-3.9,0-4,1.6-.2,2.2,2.3.3,3.2-.1,4-1.9.9-1.9.8-2.3-.5-2.3-.8,0-1.2.4-.9,1Z"/>
  <path class="cls-1" d="M230.8,46.36c-.4.4-.2,1.5.4,2.5.9,1.4.9,2.3-.2,3.7q-1.3,1.7.4.1c1.4-1.2,1.6-2.2.9-4.3-.4-1.4-1.1-2.3-1.5-2Z"/>
  <path class="cls-1" d="M.7,207.56c-.4.3-.7,1.7-.7,3,0,1.6.6,2.3,2,2.3,1.8,0,2,.7,2,8.5s-.1,8.5-2.1,8.5c-1.6,0-2,.5-1.7,2.7l.3,2.8h24v-4.5c0-4.2-.2-4.5-2.7-4.8-2.3-.3-2.8.1-2.8,1.8,0,1.8-.5,2.1-3.7,1.8l-3.8-.3-.3-7.8c-.3-7.2-.1-7.9,1.8-8.4,1.4-.4,2-1.4,2-3.4v-2.9h-6.8c-3.8,0-7.2.3-7.5.7Z"/>
  <path class="cls-1" d="M40,209.76c0,1.6.5,3.1,1.2,3.3,1.8.6-4.1,16-6.4,16.6-1.2.3-1.8,1.4-1.8,3.3v2.9h14v-2.9c0-1.6-.5-3.1-1.2-3.3-.6-.2-.9-1.1-.5-2,1.1-2.9,10.7-1.7,10.7,1.3,0,.5-.7.9-1.5.9-1,0-1.5,1-1.5,3v3.1l7.3-.3c7-.3,7.2-.4,7.5-3,.3-2.1-.2-2.7-1.8-3-1.7-.2-3.1-2.5-6.5-11.3l-4.4-11-7.5-.3-7.6-.3v3ZM51.5,217.96c.8,2.4.1,3.4-1.9,2.6-.9-.4-1.2-1.4-.9-2.6.7-2.7,2-2.7,2.8,0Z"/>
  <path class="cls-1" d="M89,211.86c0,4.7.1,5,2.6,5,1.8,0,2.8-.6,3.1-2,1.2-4.6,2.8-1,3.1,6.8s.2,8.2-1.8,8.2c-1.7,0-2.1.5-1.8,2.7.3,2.8.4,2.8,7.3,2.8s7-.1,7.3-2.6c.2-2-.2-2.8-1.7-3.2-1.9-.5-2.1-1.3-2.1-7.4,0-3.7.4-7.4.9-8.2,1-1.6,3.1-.6,3.1,1.5,0,.8,1,1.4,2.5,1.4,2.3,0,2.5-.3,2.5-5v-5h-25v5Z"/>
  <path class="cls-1" d="M123,209.76c0,2.1.5,3.1,1.5,3.1,1.2,0,1.5,1.6,1.5,8.4,0,7.4-.2,8.4-1.9,8.9-1.4.3-1.7,1.1-1.4,3.1.5,2.5.8,2.6,7.4,2.6h6.9v-3c0-2-.5-3-1.5-3-2,0-1.9-2.9.1-3.7,2.3-.9,3.7,1.1,3.8,5.4l.1,3.8,7.3.3,7.2.3v-3c0-2.5-.4-3-2.6-3.3-4.2-.5-5.2-3-2.6-6.3,3-3.8,2.9-9.5-.2-13.2-2.4-2.7-2.7-2.8-14-3.1l-11.6-.4v3.1ZM142.8,214.06c3,3,.1,6.8-5.1,6.8-3.2,0-5.1-2.3-4.3-5.5.5-2.1,1.2-2.5,4.4-2.5,2.1,0,4.3.5,5,1.2Z"/>
  <path class="cls-1" d="M162.7,207.56c-1.5,1.4-.6,5.1,1.3,5.6,1.8.5,2,1.4,2,8.6s-.1,8.1-2.1,8.1c-1.6,0-2,.5-1.7,2.7.3,2.8.4,2.8,7.3,2.8s7-.1,7.3-2.6c.2-2-.2-2.8-1.7-3.2-1.9-.5-2.1-1.3-2.1-8.2s.2-7.7,2-8.2c1.4-.4,2-1.4,2-3.4v-2.9h-6.8c-3.8,0-7.2.3-7.5.7Z"/>
  <path class="cls-1" d="M185.7,207.56c-1.5,1.4-.6,5.1,1.3,5.6,1.8.5,2,1.4,2,8.2s-.2,7.7-2.1,8.2c-1.5.4-1.9,1.2-1.7,3.2.3,2.5.6,2.6,7.6,2.9l7.2.3v-2.9c0-2.1-.6-3.1-2-3.5-1.6-.4-2-1.4-2-4.6,0-2.3.4-4.1.9-4.1.6,0,3.2,3.3,5.9,7.2,4.4,6.6,5.2,7.3,8.5,7.6l3.7.3v-11.1c0-10.4.1-11.2,2.1-11.7,1.5-.4,1.9-1.2,1.7-3.2-.3-2.5-.5-2.6-7.3-2.6s-7,.1-7.3,2.6c-.2,2,.2,2.8,1.7,3.2,1.7.4,2.1,1.3,2.1,4.6,0,2.3-.4,4.1-.9,4.1s-3.2-3.4-6-7.5l-5.2-7.5h-4.8c-2.6,0-5.1.3-5.4.7Z"/>
  <path class="cls-1" d="M234.3,208.46c-10.4,5.1-9.5,22.9,1.3,26.4,6.8,2.3,17-.3,18.8-4.7.3-.7-.8-2-2.5-2.9-2.7-1.3-3.3-1.4-4.7-.1-6.3,5.3-14.2.1-12.6-8.2.4-1.9,1.7-3.5,3.9-4.7,3.1-1.7,3.5-1.7,5.9-.1,1.4,1,2.6,2.4,2.6,3.2,0,1,1.1,1.5,3.5,1.5,3.2,0,3.5-.3,3.5-2.8-.1-3.4-1.6-5.4-5.7-7.5-4-2.1-9.8-2.1-14-.1Z"/>
  <path class="cls-1" d="M264,209.86c0,2,.5,3,1.5,3,1.2,0,1.5,1.6,1.5,8.5s-.3,8.5-1.5,8.5c-1,0-1.5,1-1.5,3v3h14v-3c0-2-.5-3-1.5-3-.9,0-1.5-.9-1.5-2.5,0-2.5.3-2.7,6-2.7,4.9,0,5,.1,5,2.7,0,1.6-.6,2.5-1.5,2.5-1,0-1.5,1-1.5,3v3h14v-3c0-1.9-.5-3-1.4-3-1.9,0-2.3-1.5-2-9,.3-8.5.2-8,1.9-8,1,0,1.5-1,1.5-3v-3.1l-7.2.3c-7.1.3-7.3.4-7,2.8.2,1.3,1.1,2.9,1.9,3.5s1.4,2,1.1,3.1c-.2,1.5-1.3,2-5.6,2.2l-5.2.3v-3c0-2.1.5-3.1,1.5-3.1s1.5-1,1.5-3v-3h-14v3Z"/>
  <path class="cls-1" d="M305.7,207.46c-.4.4-.7,1.8-.7,3.1,0,1.6.6,2.3,2,2.3,1.8,0,2,.7,2,8.4s-.2,8.4-2.1,8.9c-1.5.4-2,1.2-1.7,2.9.3,2.3.5,2.3,12.3,2.3h12v-4.5c0-4.1-.2-4.5-2.6-4.8-2-.2-2.8.2-3.2,1.8-.4,1.7-1.2,2.1-3.9,1.8-4.2-.4-4.8-3.9-.8-4.8,1.8-.4,2.6-1.4,2.8-3.3.3-2.3,0-2.7-2.2-2.7s-2.6-.4-2.6-3,.3-3,3.1-3c2.3,0,3.2.5,3.6,2.1.4,1.5,1.2,1.9,3.2,1.7,2.4-.3,2.6-.7,2.6-4.8v-4.5l-11.6-.3c-6.3-.1-11.8.1-12.2.4Z"/>
  <path class="cls-1" d="M338,209.86c0,2,.5,3,1.5,3,1.2,0,1.5,1.6,1.5,8.5s-.3,8.5-1.5,8.5c-1,0-1.5,1-1.5,3v3h14v-3c0-2.1-.5-3-1.6-3-1.7,0-1.6-3.1.1-3.7,2.1-.6,3.8,1.7,3.9,5.4l.1,3.8,7.3.3,7.2.3v-3.1c0-2.5-.4-3-2.5-3-1.4,0-2.9-.8-3.6-2.1-.9-1.7-.7-2.5.9-4.2,4.5-4.8,3.6-11.3-2-14.7-2.7-1.6-5.1-2-13.5-2h-10.3v3ZM357.8,214.06c3.2,3.2-.3,7.2-5.6,6.6-2.3-.3-2.7-.8-3-4.1q-.3-3.7,3.5-3.7c2.2,0,4.4.5,5.1,1.2Z"/>
  <path class="cls-1" d="M384.9,207.06c-.7,2.2-.3,5.1.8,5.5,1.8.7,1.7,1.5-1.8,9.8-2,5-3.6,7.5-5,7.8-1.5.4-2,1.2-1.7,2.9.3,2.1.8,2.3,7.6,2.6l7.2.3v-2.9c0-1.9-.6-3.2-1.7-3.6-2.7-1.1.2-3,4.7-3.2,4.3-.1,7.5,2.1,4.6,3.2-1,.4-1.6,1.8-1.6,3.5v2.9h14v-3c0-2-.5-3-1.5-3-.9,0-2-1.2-2.6-2.8-.5-1.5-2.6-6.6-4.6-11.5l-3.6-8.7h-7.3c-4.1,0-7.4.1-7.5.2ZM396.4,217.46c1,2.6.7,3.4-1.4,3.4-1.1,0-2-.4-2-.9,0-1.7,1.2-4.1,2-4.1.4,0,1.1.7,1.4,1.6Z"/>
</svg>