<?xml version="1.0" standalone="no"?>
<!DOCTYPE svg PUBLIC "-//W3C//DTD SVG 20010904//EN"
 "http://www.w3.org/TR/2001/REC-SVG-20010904/DTD/svg10.dtd">
<svg version="1.0" xmlns="http://www.w3.org/2000/svg"
 width="447.000000pt" height="559.000000pt" viewBox="0 0 447.000000 559.000000"
 preserveAspectRatio="xMidYMid meet">

<g transform="translate(0.000000,559.000000) scale(0.100000,-0.100000)"
fill="#000000" stroke="none">
<path d="M1333 3645 c-12 -8 -21 -24 -20 -34 1 -16 11 -20 75 -23 41 -2 76 -9
80 -15 5 -8 13 -9 22 -3 13 8 12 10 -2 10 -14 0 -18 9 -18 40 0 22 -5 40 -10
40 -6 0 -8 -11 -4 -26 6 -24 5 -25 -32 -22 -32 2 -40 7 -42 26 -4 26 -19 28
-49 7z"/>
<path d="M1311 3571 c-11 -7 -11 -13 3 -32 9 -13 16 -30 16 -38 0 -25 -50 -80
-104 -115 -62 -40 -67 -46 -76 -99 -9 -45 -2 -40 33 26 14 27 39 56 55 65 52
30 78 56 94 98 10 23 14 44 11 47 -3 4 -2 14 1 24 7 17 8 17 22 -1 8 -11 14
-15 14 -9 0 6 3 18 6 27 5 13 -1 16 -27 16 -19 0 -40 -4 -48 -9z"/>
<path d="M1410 3440 c0 -5 5 -10 10 -10 6 0 10 5 10 10 0 6 -4 10 -10 10 -5 0
-10 -4 -10 -10z"/>
<path d="M1393 3377 c0 -27 6 -52 14 -58 10 -9 13 -6 13 17 -1 16 -7 43 -14
59 l-13 30 0 -48z"/>
<path d="M1270 3356 c0 -8 4 -17 9 -20 5 -4 7 3 4 14 -6 23 -13 26 -13 6z"/>
<path d="M1315 3352 c-17 -12 -15 -49 3 -64 15 -12 16 -11 4 4 -10 13 -11 22
-2 38 13 23 10 33 -5 22z"/>
<path d="M1465 3350 c3 -5 10 -10 16 -10 5 0 9 5 9 10 0 6 -7 10 -16 10 -8 0
-12 -4 -9 -10z"/>
<path d="M1456 3253 c-6 -14 -5 -15 5 -6 7 7 10 15 7 18 -3 3 -9 -2 -12 -12z"/>
<path d="M1131 3183 c-6 -31 -10 -75 -10 -97 l2 -41 8 45 c10 50 20 150 15
150 -2 0 -8 -26 -15 -57z"/>
<path d="M1236 3172 c-4 -29 -10 -60 -13 -69 -4 -10 -2 -14 5 -9 6 3 13 2 17
-4 7 -11 48 -14 58 -3 4 3 -2 13 -13 20 -11 8 -18 19 -15 24 4 5 1 9 -4 9 -6
0 -11 10 -12 23 0 12 -4 31 -8 42 -6 15 -10 6 -15 -33z"/>
<path d="M1288 3203 c7 -3 16 -2 19 1 4 3 -2 6 -13 5 -11 0 -14 -3 -6 -6z"/>
<path d="M1328 3203 c7 -3 16 -2 19 1 4 3 -2 6 -13 5 -11 0 -14 -3 -6 -6z"/>
<path d="M1516 3153 c-13 -111 -9 -195 5 -123 5 25 18 57 29 72 l20 27 -24 41
-23 41 -7 -58z"/>
<path d="M1440 3180 c0 -5 5 -10 10 -10 6 0 10 5 10 10 0 6 -4 10 -10 10 -5 0
-10 -4 -10 -10z"/>
<path d="M1680 3171 c0 -6 5 -13 10 -16 6 -3 10 -21 10 -40 0 -19 -4 -37 -10
-40 -24 -15 -6 -25 45 -25 48 0 55 2 55 20 0 22 -10 26 -27 9 -22 -22 -35 2
-31 52 5 48 5 49 -23 49 -16 0 -29 -4 -29 -9z"/>
<path d="M1865 3161 c3 -11 -3 -38 -15 -62 -11 -24 -20 -44 -20 -46 0 -2 14
-3 31 -3 26 0 30 3 27 23 -2 17 3 23 21 25 21 3 23 1 17 -22 -6 -24 -4 -26 23
-26 31 0 49 14 31 25 -5 3 -20 28 -31 56 -20 45 -24 49 -56 49 -29 0 -33 -3
-28 -19z m50 -31 c3 -5 1 -10 -4 -10 -6 0 -11 5 -11 10 0 6 2 10 4 10 3 0 8
-4 11 -10z"/>
<path d="M2090 3160 c0 -11 5 -20 10 -20 6 0 10 5 10 11 0 5 5 7 10 4 6 -3 10
-21 10 -40 0 -19 -4 -37 -10 -40 -20 -12 -10 -25 20 -25 l29 0 -6 51 c-6 49
-5 51 15 44 18 -5 22 -2 22 14 0 19 -6 21 -55 21 -48 0 -55 -2 -55 -20z"/>
<path d="M2240 3171 c0 -6 5 -13 10 -16 6 -3 10 -21 10 -40 0 -19 -4 -37 -10
-40 -20 -12 -9 -25 21 -25 29 0 31 2 25 26 -5 19 -3 25 6 22 7 -3 14 -14 16
-26 3 -17 10 -22 33 -22 32 0 38 14 12 29 -15 8 -16 12 -4 34 10 19 10 29 2
46 -10 17 -21 21 -66 21 -30 0 -55 -4 -55 -9z m95 -31 c0 -8 -10 -16 -22 -18
-18 -3 -23 2 -23 18 0 16 5 21 23 18 12 -2 22 -10 22 -18z"/>
<path d="M2420 3170 c0 -5 5 -10 10 -10 6 0 10 -18 10 -39 0 -22 -4 -43 -10
-46 -19 -12 -10 -25 18 -25 27 0 27 1 27 65 0 64 0 65 -27 65 -16 0 -28 -4
-28 -10z"/>
<path d="M2535 3115 c0 -64 0 -65 28 -65 27 0 36 13 17 25 -12 7 -14 45 -2 45
4 0 18 -16 31 -35 34 -51 51 -46 51 14 0 28 5 53 10 56 21 13 8 25 -27 25 -29
0 -34 -3 -25 -12 14 -14 16 -48 2 -48 -5 0 -16 14 -25 30 -10 20 -23 30 -38
30 -20 0 -22 -4 -22 -65z"/>
<path d="M2736 3161 c-44 -49 8 -128 70 -106 37 13 28 30 -16 30 -30 0 -35 4
-38 26 -2 14 3 31 11 38 15 12 47 5 47 -10 0 -5 7 -9 15 -9 18 0 20 21 3 38
-19 19 -73 14 -92 -7z"/>
<path d="M2895 3115 c0 -64 0 -65 27 -65 28 0 37 13 18 25 -20 12 -9 25 20 25
29 0 40 -13 20 -25 -20 -12 -10 -25 19 -25 31 0 49 14 31 25 -13 8 -13 85 0
85 6 0 10 5 10 10 0 6 -16 10 -35 10 -34 0 -46 -12 -25 -25 20 -12 9 -25 -20
-25 -29 0 -40 13 -20 25 19 12 10 25 -17 25 -28 0 -28 -1 -28 -65z"/>
<path d="M3085 3115 l0 -65 48 0 c34 0 49 4 54 15 8 23 -5 31 -29 16 -14 -9
-24 -9 -31 -2 -7 7 -5 12 6 17 22 8 22 23 0 40 -17 12 -17 13 1 20 11 4 21 2
27 -7 6 -10 11 -11 20 -2 20 20 0 33 -49 33 l-47 0 0 -65z"/>
<path d="M3235 3115 c0 -64 0 -65 27 -65 28 0 37 13 18 25 -6 4 -8 11 -4 16 8
14 24 0 24 -22 0 -14 7 -19 28 -19 39 0 46 10 21 28 -15 10 -18 17 -10 25 15
15 14 50 -1 65 -7 7 -32 12 -57 12 l-46 0 0 -65z m83 22 c3 -12 -3 -17 -22
-17 -25 0 -35 18 -19 34 12 12 38 2 41 -17z"/>
<path d="M3444 3145 c0 -18 -8 -42 -17 -53 -25 -28 -21 -42 14 -42 26 0 30 3
27 23 -2 16 2 22 17 22 15 0 19 -6 18 -22 -2 -19 2 -23 27 -23 20 0 30 5 30
15 0 8 -3 15 -8 15 -4 0 -15 23 -25 50 -16 46 -20 50 -50 50 -31 0 -33 -2 -33
-35z"/>
<path d="M1338 3055 c4 -24 2 -25 -46 -25 -55 0 -57 -2 -67 -74 -6 -39 -5 -46
9 -46 9 0 16 7 16 15 0 37 31 74 69 86 34 10 39 15 39 40 -1 16 -6 29 -13 29
-8 0 -10 -9 -7 -25z"/>
<path d="M1240 3055 c0 -9 9 -15 25 -15 16 0 25 6 25 15 0 9 -9 15 -25 15 -16
0 -25 -6 -25 -15z"/>
<path d="M1111 2973 c-1 -35 3 -63 8 -63 4 0 6 24 4 53 -7 77 -11 81 -12 10z"/>
<path d="M1584 3004 c3 -9 6 -34 6 -55 0 -23 4 -38 9 -34 6 3 8 15 5 28 -2 12
-5 34 -6 50 -1 15 -6 27 -11 27 -5 0 -6 -7 -3 -16z"/>
<path d="M1555 2950 c3 -5 8 -10 11 -10 2 0 4 5 4 10 0 6 -5 10 -11 10 -5 0
-7 -4 -4 -10z"/>
</g>
</svg>
