<?xml version="1.0" standalone="no"?>
<!DOCTYPE svg PUBLIC "-//W3C//DTD SVG 20010904//EN"
 "http://www.w3.org/TR/2001/REC-SVG-20010904/DTD/svg10.dtd">
<svg version="1.0" xmlns="http://www.w3.org/2000/svg"
 width="558.000000pt" height="447.000000pt" viewBox="0 0 558.000000 447.000000"
 preserveAspectRatio="xMidYMid meet">

<g transform="translate(0.000000,447.000000) scale(0.100000,-0.100000)"
fill="#000000" stroke="none">
<path d="M2777 3530 c-98 -31 -107 -40 -107 -115 l0 -64 33 7 c76 17 357 -6
357 -30 0 -4 -19 -5 -42 -1 -24 4 -110 8 -193 8 -114 0 -157 -4 -179 -15 -42
-21 -43 -37 -3 -60 40 -24 45 -33 53 -103 7 -58 9 -54 -93 -166 -33 -36 -87
-78 -144 -111 -144 -86 -167 -114 -188 -235 -7 -38 -17 -92 -22 -120 -36 -174
-70 -470 -76 -652 l-6 -173 607 0 606 0 -1 153 -1 152 -18 -55 c-12 -36 -19
-86 -19 -142 l-1 -88 -26 0 c-25 0 -26 2 -20 38 11 65 28 136 41 177 49 149
53 281 13 395 -35 102 -53 165 -83 300 -41 178 -50 194 -137 235 -43 20 -95
55 -125 84 -57 54 -64 66 -33 58 11 -3 18 -2 15 3 -2 4 -24 12 -47 18 -24 6
-64 25 -90 41 -40 25 -48 36 -48 61 0 16 -4 30 -9 30 -19 0 8 -71 36 -93 51
-39 85 -77 81 -90 -3 -6 -14 -16 -26 -22 -12 -5 -22 -14 -22 -20 0 -5 -7 -23
-15 -38 -8 -15 -10 -25 -5 -22 10 6 30 -26 30 -47 0 -7 -5 -20 -10 -28 -7 -12
-17 -6 -52 31 -52 56 -68 75 -102 125 -29 43 -35 94 -11 94 8 0 15 -3 15 -8 0
-4 10 -13 23 -21 17 -10 19 -11 10 0 -26 27 -8 160 19 143 7 -4 2 6 -10 23
-26 37 -28 78 -5 92 26 14 53 -5 53 -38 0 -24 15 -41 36 -41 2 0 4 16 4 35 0
19 5 46 12 60 12 26 12 26 97 20 47 -4 91 -10 96 -13 13 -8 51 -4 95 10 l35
12 -55 10 -55 11 -3 65 c-3 96 -8 110 -47 126 -47 19 -167 16 -238 -6z m207
-10 c23 -8 26 -15 26 -54 0 -48 -10 -56 -82 -56 -53 0 -66 8 -88 51 -33 64
-29 69 49 69 38 0 81 -4 95 -10z m6 -583 c56 -58 108 -137 90 -137 -6 0 -25 7
-42 16 l-32 17 19 -29 c10 -16 31 -46 47 -67 l30 -37 -27 -53 c-15 -28 -41
-69 -57 -89 -20 -25 -25 -39 -17 -44 16 -10 43 27 86 114 l36 73 -23 31 c-18
24 -19 30 -7 25 22 -8 22 27 2 63 -25 44 -19 51 26 31 68 -31 87 -57 110 -156
11 -50 44 -171 72 -270 61 -212 67 -300 30 -415 -12 -36 -27 -93 -34 -127 -6
-35 -13 -63 -16 -63 -2 0 -16 11 -31 25 -15 14 -38 28 -51 32 -23 6 -23 8 -19
97 3 71 10 104 30 147 25 55 71 112 98 121 10 3 -1 19 -32 49 -51 49 -71 100
-87 224 l-8 70 -2 -75 c-2 -113 -23 -271 -48 -362 -3 -14 -15 -18 -53 -18
l-49 0 -3 144 -3 145 -30 31 c-30 31 -130 101 -196 136 -71 39 -139 88 -139
101 0 7 4 13 8 13 14 0 63 98 53 104 -5 3 -30 -3 -56 -14 -66 -28 -71 -26 -79
26 -9 72 -8 76 34 124 l40 45 21 -25 c11 -14 33 -38 47 -55 53 -60 148 -181
191 -245 24 -36 40 -56 36 -45 -5 11 -7 57 -6 102 2 62 -1 83 -12 90 -24 14
-38 48 -25 61 9 9 7 16 -5 30 -22 24 -21 39 3 54 11 7 20 18 20 25 0 20 5 17
60 -40z m-430 -130 c7 -72 15 -80 65 -63 22 8 42 13 44 11 1 -2 -9 -20 -24
-40 -27 -34 -27 -36 -10 -55 10 -11 63 -45 119 -76 133 -74 212 -129 232 -160
16 -23 16 -26 -1 -38 -21 -15 -14 -46 10 -46 12 0 15 -17 15 -105 0 -85 -3
-105 -14 -105 -8 0 -18 5 -21 10 -3 6 -24 10 -45 10 -21 0 -42 -4 -45 -10 -11
-17 -102 -11 -167 11 -60 20 -138 71 -138 90 0 6 38 7 95 3 78 -6 95 -4 95 7
3 94 0 232 -5 237 -8 8 -187 22 -197 15 -5 -2 -8 -22 -8 -44 0 -38 1 -39 34
-39 18 0 61 -3 95 -6 l61 -7 0 -75 0 -75 -92 7 c-51 4 -96 10 -100 14 -4 4
-14 50 -23 102 -16 96 -53 225 -62 217 -2 -3 0 -22 6 -44 22 -78 14 -150 -48
-448 -17 -82 -37 -202 -43 -265 l-13 -115 -79 -3 -78 -3 5 223 c3 123 10 243
17 268 6 24 26 62 44 85 18 22 41 56 51 75 l18 35 -42 -42 c-68 -71 -69 -67
-30 141 20 107 52 174 103 218 30 26 30 28 12 41 -17 13 -15 15 30 44 69 44
107 63 119 59 6 -1 12 -28 15 -59z m184 -337 c5 -5 6 -16 2 -26 -5 -14 -15
-16 -59 -10 -28 3 -64 6 -79 6 -23 0 -28 4 -28 26 l0 26 78 -7 c42 -4 81 -11
86 -15z m-129 -338 c66 3 102 4 80 1 -22 -2 -50 -8 -61 -14 -12 -6 -49 -9 -83
-7 l-61 3 0 -47 0 -48 38 -1 c20 0 45 -2 55 -4 16 -3 18 1 12 22 -6 25 -5 25
20 -6 22 -25 34 -31 68 -31 25 0 37 -4 32 -9 -6 -6 -28 -6 -55 -1 -25 5 -75 9
-111 10 l-67 0 -5 -32 c-4 -18 -14 -81 -23 -140 -15 -92 -20 -108 -36 -108
-10 0 -18 7 -18 16 0 28 47 343 62 414 l12 55 10 -39 10 -39 121 5z m355 -67
l0 -75 -40 0 -40 0 0 68 c0 38 3 72 7 75 3 4 21 7 40 7 l33 0 0 -75z m-240 -5
l0 -50 -35 0 c-34 0 -75 27 -75 50 0 31 26 50 67 50 l43 0 0 -50z m150 0 l0
-50 -50 0 -50 0 0 50 0 50 50 0 50 0 0 -50z m250 6 c0 -50 -9 -56 -97 -56
l-53 0 0 50 0 50 75 0 75 0 0 -44z m-527 19 c-3 -9 -8 -14 -10 -11 -3 3 -2 9
2 15 9 16 15 13 8 -4z m535 -115 c5 -52 25 -104 57 -154 58 -88 57 -91 -62
-94 l-103 -3 0 135 c0 149 -2 146 70 143 29 -2 35 -6 38 -27z m-128 -117 l0
-133 -245 0 c-279 0 -258 -8 -229 90 22 75 71 122 149 145 33 9 69 21 80 25
11 5 71 7 132 7 l113 -2 0 -132z m255 -49 c16 -25 14 -74 -3 -74 -9 0 -72 114
-72 130 0 16 54 -24 75 -56z"/>
<path d="M2931 2854 c0 -11 3 -14 6 -6 3 7 2 16 -1 19 -3 4 -6 -2 -5 -13z"/>
<path d="M2710 2680 c0 -13 5 -20 13 -17 6 2 12 10 12 17 0 7 -6 15 -12 18 -8
2 -13 -5 -13 -18z"/>
<path d="M2960 3280 c-10 -6 -11 -10 -2 -10 6 0 12 -7 12 -15 0 -18 14 -19 42
-4 21 11 21 12 3 25 -22 16 -35 17 -55 4z"/>
<path d="M2773 3239 c-1 -17 2 -27 7 -24 12 7 13 42 3 48 -5 3 -9 -8 -10 -24z"/>
<path d="M3052 3245 c0 -16 2 -22 5 -12 2 9 2 23 0 30 -3 6 -5 -1 -5 -18z"/>
<path d="M3072 3170 c0 -14 2 -19 5 -12 2 6 2 18 0 25 -3 6 -5 1 -5 -13z"/>
<path d="M3035 3140 c4 -6 -7 -10 -24 -10 -39 0 -40 -16 -2 -22 23 -3 32 1 40
19 9 19 8 23 -5 23 -8 0 -12 -4 -9 -10z"/>
<path d="M3018 3085 c-4 -4 -2 -15 4 -25 9 -14 9 -23 -2 -37 -13 -17 -13 -17
4 -1 14 12 16 22 9 43 -4 14 -11 23 -15 20z"/>
<path d="M717 1473 c-4 -3 -7 -17 -7 -30 0 -16 6 -23 20 -23 18 0 20 -7 20
-85 0 -79 -1 -85 -21 -85 -16 0 -20 -5 -17 -27 l3 -28 120 0 120 0 0 45 c0 42
-2 45 -27 48 -23 3 -28 -1 -28 -18 0 -18 -5 -21 -37 -18 l-38 3 -3 78 c-3 72
-1 79 18 84 14 4 20 14 20 34 l0 29 -68 0 c-38 0 -72 -3 -75 -7z"/>
<path d="M1110 1451 c0 -16 5 -31 12 -33 18 -6 -41 -160 -64 -166 -12 -3 -18
-14 -18 -33 l0 -29 70 0 70 0 0 29 c0 16 -5 31 -12 33 -6 2 -9 11 -5 20 11 29
107 17 107 -13 0 -5 -7 -9 -15 -9 -10 0 -15 -10 -15 -30 l0 -31 73 3 c70 3 72
4 75 30 3 21 -2 27 -18 30 -17 2 -31 25 -65 113 l-44 110 -75 3 -76 3 0 -30z
m115 -82 c8 -24 1 -34 -19 -26 -9 4 -12 14 -9 26 7 27 20 27 28 0z"/>
<path d="M1600 1430 c0 -47 1 -50 26 -50 18 0 28 6 31 20 12 46 28 10 31 -68
3 -78 2 -82 -18 -82 -17 0 -21 -5 -18 -27 3 -28 4 -28 73 -28 68 0 70 1 73 26
2 20 -2 28 -17 32 -19 5 -21 13 -21 74 0 37 4 74 9 82 10 16 31 6 31 -15 0 -8
10 -14 25 -14 23 0 25 3 25 50 l0 50 -125 0 -125 0 0 -50z"/>
<path d="M1940 1451 c0 -21 5 -31 15 -31 12 0 15 -16 15 -84 0 -74 -2 -84 -19
-89 -14 -3 -17 -11 -14 -31 5 -25 8 -26 74 -26 l69 0 0 30 c0 20 -5 30 -15 30
-20 0 -19 29 1 37 23 9 37 -11 38 -54 l1 -38 73 -3 72 -3 0 30 c0 25 -4 30
-26 33 -42 5 -52 30 -26 63 30 38 29 95 -2 132 -24 27 -27 28 -140 31 l-116 4
0 -31z m198 -43 c30 -30 1 -68 -51 -68 -32 0 -51 23 -43 55 5 21 12 25 44 25
21 0 43 -5 50 -12z"/>
<path d="M2337 1473 c-15 -14 -6 -51 13 -56 18 -5 20 -14 20 -86 0 -75 -1 -81
-21 -81 -16 0 -20 -5 -17 -27 3 -28 4 -28 73 -28 68 0 70 1 73 26 2 20 -2 28
-17 32 -19 5 -21 13 -21 82 0 68 2 77 20 82 14 4 20 14 20 34 l0 29 -68 0
c-38 0 -72 -3 -75 -7z"/>
<path d="M2567 1473 c-15 -14 -6 -51 13 -56 18 -5 20 -14 20 -82 0 -69 -2 -77
-21 -82 -15 -4 -19 -12 -17 -32 3 -25 6 -26 76 -29 l72 -3 0 29 c0 21 -6 31
-20 35 -16 4 -20 14 -20 46 0 23 4 41 9 41 6 0 32 -33 59 -72 44 -66 52 -73
85 -76 l37 -3 0 111 c0 104 1 112 21 117 15 4 19 12 17 32 -3 25 -5 26 -73 26
-68 0 -70 -1 -73 -26 -2 -20 2 -28 17 -32 17 -4 21 -13 21 -46 0 -23 -4 -41
-9 -41 -5 0 -32 34 -60 75 l-52 75 -48 0 c-26 0 -51 -3 -54 -7z"/>
<path d="M3053 1464 c-104 -51 -95 -229 13 -264 68 -23 170 3 188 47 3 7 -8
20 -25 29 -27 13 -33 14 -47 1 -63 -53 -142 -1 -126 82 4 19 17 35 39 47 31
17 35 17 59 1 14 -10 26 -24 26 -32 0 -10 11 -15 35 -15 32 0 35 3 35 28 -1
34 -16 54 -57 75 -40 21 -98 21 -140 1z"/>
<path d="M3350 1450 c0 -20 5 -30 15 -30 12 0 15 -16 15 -85 0 -69 -3 -85 -15
-85 -10 0 -15 -10 -15 -30 l0 -30 70 0 70 0 0 30 c0 20 -5 30 -15 30 -9 0 -15
9 -15 25 0 25 3 27 60 27 49 0 50 -1 50 -27 0 -16 -6 -25 -15 -25 -10 0 -15
-10 -15 -30 l0 -30 70 0 70 0 0 30 c0 19 -5 30 -14 30 -19 0 -23 15 -20 90 3
85 2 80 19 80 10 0 15 10 15 30 l0 31 -72 -3 c-71 -3 -73 -4 -70 -28 2 -13 11
-29 19 -35 8 -6 14 -20 11 -31 -2 -15 -13 -20 -56 -22 l-52 -3 0 30 c0 21 5
31 15 31 10 0 15 10 15 30 l0 30 -70 0 -70 0 0 -30z"/>
<path d="M3767 1474 c-4 -4 -7 -18 -7 -31 0 -16 6 -23 20 -23 18 0 20 -7 20
-84 0 -76 -2 -84 -21 -89 -15 -4 -20 -12 -17 -29 3 -23 5 -23 123 -23 l120 0
0 45 c0 41 -2 45 -26 48 -20 2 -28 -2 -32 -18 -4 -17 -12 -21 -39 -18 -42 4
-48 39 -8 48 18 4 26 14 28 33 3 23 0 27 -22 27 -22 0 -26 4 -26 30 0 27 3 30
31 30 23 0 32 -5 36 -21 4 -15 12 -19 32 -17 24 3 26 7 26 48 l0 45 -116 3
c-63 1 -118 -1 -122 -4z"/>
<path d="M4090 1450 c0 -20 5 -30 15 -30 12 0 15 -16 15 -85 0 -69 -3 -85 -15
-85 -10 0 -15 -10 -15 -30 l0 -30 70 0 70 0 0 30 c0 21 -5 30 -16 30 -17 0
-16 31 1 37 21 6 38 -17 39 -54 l1 -38 73 -3 72 -3 0 31 c0 25 -4 30 -25 30
-14 0 -29 8 -36 21 -9 17 -7 25 9 42 45 48 36 113 -20 147 -27 16 -51 20 -135
20 l-103 0 0 -30z m198 -42 c32 -32 -3 -72 -56 -66 -23 3 -27 8 -30 41 -3 37
-3 37 35 37 22 0 44 -5 51 -12z"/>
<path d="M4559 1478 c-7 -22 -3 -51 8 -55 18 -7 17 -15 -18 -98 -20 -50 -36
-75 -50 -78 -15 -4 -20 -12 -17 -29 3 -21 8 -23 76 -26 l72 -3 0 29 c0 19 -6
32 -17 36 -27 11 2 30 47 32 43 1 75 -21 46 -32 -10 -4 -16 -18 -16 -35 l0
-29 70 0 70 0 0 30 c0 20 -5 30 -15 30 -9 0 -20 12 -26 28 -5 15 -26 66 -46
115 l-36 87 -73 0 c-41 0 -74 -1 -75 -2z m115 -104 c10 -26 7 -34 -14 -34 -11
0 -20 4 -20 9 0 17 12 41 20 41 4 0 11 -7 14 -16z"/>
</g>
</svg>
