<?xml version="1.0" encoding="UTF-8"?>
<svg id="Capa_1" data-name="Capa 1" xmlns="http://www.w3.org/2000/svg" viewBox="0 0 260.35 396.77">
  <defs>
    <style>
      .cls-1 {
        fill: #004aad;
      }
    </style>
  </defs>
  <path class="cls-1" d="M130.93,3.98c-21.03,6.65-22.97,8.59-22.97,24.68v13.74l7.08-1.5c16.31-3.65,76.62,1.29,76.62,6.44,0,.86-4.08,1.07-9.01.21-5.15-.86-23.61-1.72-41.42-1.72-24.47,0-33.7.86-38.42,3.22-9.01,4.51-9.23,7.94-.64,12.88,8.59,5.15,9.66,7.08,11.38,22.11,1.5,12.45,1.93,11.59-19.96,35.63-7.08,7.73-18.67,16.74-30.91,23.82-30.91,18.46-35.84,24.47-40.35,50.44-1.5,8.16-3.65,19.75-4.72,25.76-7.73,37.35-15.02,100.88-16.31,139.94l-1.29,37.13h260.35l-.21-32.84-.21-32.62-3.86,11.8c-2.58,7.73-4.08,18.46-4.08,30.48l-.21,18.89h-5.58c-5.37,0-5.58-.43-4.29-8.16,2.36-13.95,6.01-29.19,8.8-37.99,10.52-31.98,11.38-60.31,2.79-84.78-7.51-21.89-11.38-35.41-17.81-64.39-8.8-38.21-10.73-41.64-29.41-50.44-9.23-4.29-20.39-11.8-26.83-18.03-12.23-11.59-13.74-14.17-7.08-12.45,2.36.64,3.86.43,3.22-.64-.43-.86-5.15-2.58-10.09-3.86-5.15-1.29-13.74-5.37-19.32-8.8-8.59-5.37-10.3-7.73-10.3-13.09,0-3.43-.86-6.44-1.93-6.44-4.08,0,1.72,15.24,7.73,19.96,10.95,8.37,18.24,16.53,17.39,19.32-.64,1.29-3,3.43-5.58,4.72-2.58,1.07-4.72,3-4.72,4.29,0,1.07-1.5,4.94-3.22,8.16s-2.15,5.37-1.07,4.72c2.15-1.29,6.44,5.58,6.44,10.09,0,1.5-1.07,4.29-2.15,6.01-1.5,2.58-3.65,1.29-11.16-6.65-11.16-12.02-14.6-16.1-21.89-26.83-6.22-9.23-7.51-20.18-2.36-20.18,1.72,0,3.22.64,3.22,1.72,0,.86,2.15,2.79,4.94,4.51,3.65,2.15,4.08,2.36,2.15,0-5.58-5.8-1.72-34.34,4.08-30.69,1.5.86.43-1.29-2.15-4.94-5.58-7.94-6.01-16.74-1.07-19.75,5.58-3,11.38,1.07,11.38,8.16,0,5.15,3.22,8.8,7.73,8.8.43,0,.86-3.43.86-7.51s1.07-9.87,2.58-12.88q2.58-5.58,20.82-4.29c10.09.86,19.53,2.15,20.6,2.79,2.79,1.72,10.95.86,20.39-2.15l7.51-2.58-11.8-2.15-11.8-2.36-.64-13.95c-.64-20.6-1.72-23.61-10.09-27.04-10.09-4.08-35.84-3.43-51.08,1.29ZM175.36,6.13c4.94,1.72,5.58,3.22,5.58,11.59,0,10.3-2.15,12.02-17.6,12.02-11.38,0-14.17-1.72-18.89-10.95-7.08-13.74-6.22-14.81,10.52-14.81,8.16,0,17.39.86,20.39,2.15ZM176.64,131.26c12.02,12.45,23.18,29.41,19.32,29.41-1.29,0-5.37-1.5-9.01-3.43l-6.87-3.65,4.08,6.22c2.15,3.43,6.65,9.87,10.09,14.38l6.44,7.94-5.8,11.38c-3.22,6.01-8.8,14.81-12.23,19.1-4.29,5.37-5.37,8.37-3.65,9.44,3.43,2.15,9.23-5.8,18.46-24.47l7.73-15.67-4.94-6.65c-3.86-5.15-4.08-6.44-1.5-5.37,4.72,1.72,4.72-5.8.43-13.52-5.37-9.44-4.08-10.95,5.58-6.65,14.6,6.65,18.67,12.23,23.61,33.48,2.36,10.73,9.44,36.7,15.45,57.95,13.09,45.5,14.38,64.39,6.44,89.07-2.58,7.73-5.8,19.96-7.3,27.26-1.29,7.51-2.79,13.52-3.43,13.52-.43,0-3.43-2.36-6.65-5.37s-8.16-6.01-10.95-6.87c-4.94-1.29-4.94-1.72-4.08-20.82.64-15.24,2.15-22.32,6.44-31.55,5.37-11.8,15.24-24.04,21.03-25.97,2.15-.64-.21-4.08-6.87-10.52-10.95-10.52-15.24-21.46-18.67-48.08l-1.72-15.02-.43,16.1c-.43,24.25-4.94,58.17-10.3,77.7-.64,3-3.22,3.86-11.38,3.86h-10.52l-.64-30.91-.64-31.12-6.44-6.65c-6.44-6.65-27.9-21.68-42.07-29.19-15.24-8.37-29.83-18.89-29.83-21.68,0-1.5.86-2.79,1.72-2.79,3,0,13.52-21.03,11.38-22.32-1.07-.64-6.44.64-12.02,3-14.17,6.01-15.24,5.58-16.96-5.58-1.93-15.45-1.72-16.31,7.3-26.61l8.59-9.66,4.51,5.37c2.36,3,7.08,8.16,10.09,11.8,11.38,12.88,31.77,38.85,41,52.59,5.15,7.73,8.59,12.02,7.73,9.66-1.07-2.36-1.5-12.23-1.29-21.89.43-13.31-.21-17.81-2.58-19.32-5.15-3-8.16-10.3-5.37-13.09,1.93-1.93,1.5-3.43-1.07-6.44-4.72-5.15-4.51-8.37.64-11.59,2.36-1.5,4.29-3.86,4.29-5.37,0-4.29,1.07-3.65,12.88,8.59ZM84.35,159.16c1.5,15.45,3.22,17.17,13.95,13.52,4.72-1.72,9.01-2.79,9.44-2.36.21.43-1.93,4.29-5.15,8.59-5.8,7.3-5.8,7.73-2.15,11.8,2.15,2.36,13.52,9.66,25.54,16.31,28.55,15.88,45.5,27.69,49.8,34.34,3.43,4.94,3.43,5.58-.21,8.16-4.51,3.22-3,9.87,2.15,9.87,2.58,0,3.22,3.65,3.22,22.54s-.64,22.54-3,22.54c-1.72,0-3.86-1.07-4.51-2.15-.64-1.29-5.15-2.15-9.66-2.15s-9.01.86-9.66,2.15c-2.36,3.65-21.89,2.36-35.84-2.36-12.88-4.29-29.62-15.24-29.62-19.32,0-1.29,8.16-1.5,20.39-.64,16.74,1.29,20.39.86,20.39-1.5.64-20.18,0-49.8-1.07-50.87-1.72-1.72-40.14-4.72-42.28-3.22-1.07.43-1.72,4.72-1.72,9.44,0,8.16.21,8.37,7.3,8.37,3.86,0,13.09.64,20.39,1.29l13.09,1.5v32.2l-19.75-1.5c-10.95-.86-20.6-2.15-21.46-3s-3-10.73-4.94-21.89c-3.43-20.6-11.38-48.29-13.31-46.58-.43.64,0,4.72,1.29,9.44,4.72,16.74,3,32.2-10.3,96.16-3.65,17.6-7.94,43.36-9.23,56.88l-2.79,24.68-16.96.64-16.74.64,1.07-47.86c.64-26.4,2.15-52.16,3.65-57.52,1.29-5.15,5.58-13.31,9.44-18.24,3.86-4.72,8.8-12.02,10.95-16.1l3.86-7.51-9.01,9.01c-14.6,15.24-14.81,14.38-6.44-30.26,4.29-22.97,11.16-37.35,22.11-46.79,6.44-5.58,6.44-6.01,2.58-8.8-3.65-2.79-3.22-3.22,6.44-9.44,14.81-9.44,22.97-13.52,25.54-12.66,1.29.21,2.58,6.01,3.22,12.66ZM123.84,231.5c1.07,1.07,1.29,3.43.43,5.58-1.07,3-3.22,3.43-12.66,2.15-6.01-.64-13.74-1.29-16.96-1.29-4.94,0-6.01-.86-6.01-5.58v-5.58l16.74,1.5c9.01.86,17.39,2.36,18.46,3.22ZM96.16,304.04c14.17-.64,21.89-.86,17.17-.21-4.72.43-10.73,1.72-13.09,3-2.58,1.29-10.52,1.93-17.81,1.5l-13.09-.64v20.39l8.16.21c4.29,0,9.66.43,11.8.86,3.43.64,3.86-.21,2.58-4.72-1.29-5.37-1.07-5.37,4.29,1.29,4.72,5.37,7.3,6.65,14.6,6.65,5.37,0,7.94.86,6.87,1.93-1.29,1.29-6.01,1.29-11.8.21-5.37-1.07-16.1-1.93-23.82-2.15h-14.38l-1.07,6.87c-.86,3.86-3,17.39-4.94,30.05-3.22,19.75-4.29,23.18-7.73,23.18-2.15,0-3.86-1.5-3.86-3.43,0-6.01,10.09-73.62,13.31-88.86l2.58-11.8,2.15,8.37,2.15,8.37,25.97-1.07ZM172.35,318.42v16.1h-17.17v-14.6c0-8.16.64-15.45,1.5-16.1.64-.86,4.51-1.5,8.59-1.5h7.08v16.1ZM120.84,319.5v10.73h-7.51c-7.3,0-16.1-5.8-16.1-10.73,0-6.65,5.58-10.73,14.38-10.73h9.23v10.73ZM153.03,319.5v10.73h-21.46v-21.46h21.46v10.73ZM206.69,318.21c0,10.73-1.93,12.02-20.82,12.02h-11.38v-21.46h32.2v9.44ZM93.58,314.13c-.64,1.93-1.72,3-2.15,2.36-.64-.64-.43-1.93.43-3.22,1.93-3.43,3.22-2.79,1.72.86ZM208.41,338.81c1.07,11.16,5.37,22.32,12.23,33.05,12.45,18.89,12.23,19.53-13.31,20.18l-22.11.64v-28.98c0-31.98-.43-31.34,15.02-30.69,6.22.43,7.51,1.29,8.16,5.8ZM180.94,363.93v28.55h-52.59c-59.88,0-55.38,1.72-49.15-19.32,4.72-16.1,15.24-26.19,31.98-31.12,7.08-1.93,14.81-4.51,17.17-5.37,2.36-1.07,15.24-1.5,28.33-1.5l24.25.43v28.33ZM235.67,374.44c3.43,5.37,3,15.88-.64,15.88-1.93,0-15.45-24.47-15.45-27.9s11.59,5.15,16.1,12.02Z"/>
  <path class="cls-1" d="M163.98,149.08c0,2.36.64,3,1.29,1.29.64-1.5.43-3.43-.21-4.08-.64-.86-1.29.43-1.07,2.79Z"/>
  <path class="cls-1" d="M116.55,186.42c0,2.79,1.07,4.29,2.79,3.65,1.29-.43,2.58-2.15,2.58-3.65s-1.29-3.22-2.58-3.86c-1.72-.43-2.79,1.07-2.79,3.86Z"/>
  <path class="cls-1" d="M170.21,57.64c-2.15,1.29-2.36,2.15-.43,2.15,1.29,0,2.58,1.5,2.58,3.22,0,3.86,3,4.08,9.01.86,4.51-2.36,4.51-2.58.64-5.37-4.72-3.43-7.51-3.65-11.8-.86Z"/>
  <path class="cls-1" d="M130.07,66.44c-.21,3.65.43,5.8,1.5,5.15,2.58-1.5,2.79-9.01.64-10.3-1.07-.64-1.93,1.72-2.15,5.15Z"/>
  <path class="cls-1" d="M189.95,65.15c0,3.43.43,4.72,1.07,2.58.43-1.93.43-4.94,0-6.44-.64-1.29-1.07.21-1.07,3.86Z"/>
  <path class="cls-1" d="M194.24,81.25c0,3,.43,4.08,1.07,2.58.43-1.29.43-3.86,0-5.37-.64-1.29-1.07-.21-1.07,2.79Z"/>
  <path class="cls-1" d="M186.3,87.69c.86,1.29-1.5,2.15-5.15,2.15-8.37,0-8.59,3.43-.43,4.72,4.94.64,6.87-.21,8.59-4.08,1.93-4.08,1.72-4.94-1.07-4.94-1.72,0-2.58.86-1.93,2.15Z"/>
  <path class="cls-1" d="M182.65,99.5c-.86.86-.43,3.22.86,5.37,1.93,3,1.93,4.94-.43,7.94q-2.79,3.65.86.21c3-2.58,3.43-4.72,1.93-9.23-.86-3-2.36-4.94-3.22-4.29Z"/>
</svg>